<?xml version="1.0" standalone="no"?><!DOCTYPE svg PUBLIC "-//W3C//DTD SVG 1.1//EN" "http://www.w3.org/Graphics/SVG/1.1/DTD/svg11.dtd"><svg t="1639468495065" class="icon" viewBox="0 0 1024 1024" version="1.1" xmlns="http://www.w3.org/2000/svg" p-id="3018" xmlns:xlink="http://www.w3.org/1999/xlink" width="32" height="32"><defs><style type="text/css"></style></defs><path d="M542.72 107.52c-2.56 0-2.56 0 0 0zM0 616.96v0z m732.16 10.24c35.84 0 64 28.16 64 64 0 12.8-5.12 25.6-12.8 35.84 35.84-58.88 53.76-128 53.76-199.68 0-215.04-174.08-391.68-391.68-391.68S56.32 309.76 56.32 527.36c0 71.68 17.92 135.68 51.2 194.56-2.56-10.24-5.12-20.48-5.12-30.72 0-35.84 28.16-64 64-64 23.04 0 43.52 12.8 53.76 30.72-23.04-38.4-35.84-84.48-35.84-130.56 0-145.92 117.76-263.68 263.68-263.68s266.24 117.76 266.24 263.68c0 48.64-12.8 94.72-35.84 133.12 10.24-20.48 30.72-33.28 53.76-33.28zM220.16 660.48s0-2.56 0 0c0-2.56 0 0 0 0z" fill="#28B75A" p-id="3019"></path><path d="M796.16 691.2c0-35.84-28.16-64-64-64-23.04 0-43.52 12.8-53.76 30.72-46.08 79.36-130.56 133.12-227.84 133.12-97.28 0-181.76-53.76-227.84-130.56-10.24-20.48-30.72-33.28-56.32-33.28C130.56 627.2 102.4 655.36 102.4 691.2c0 12.8 5.12 25.6 10.24 35.84 66.56 115.2 192 192 335.36 192s266.24-76.8 335.36-189.44c7.68-12.8 12.8-25.6 12.8-38.4zM153.6 752.64h10.24H153.6z m-20.48-7.68s2.56 2.56 5.12 2.56c-2.56 0-2.56-2.56-5.12-2.56z m7.68 5.12c2.56 0 5.12 2.56 10.24 2.56-2.56-2.56-7.68-2.56-10.24-2.56z m87.04-69.12v0z m-2.56-7.68v0z m445.44 7.68v10.24c-2.56-5.12-2.56-7.68 0-10.24z m0-10.24v0z m71.68 81.92h-10.24 10.24z m33.28-15.36c-2.56 2.56-5.12 5.12-7.68 5.12 2.56-2.56 5.12-2.56 7.68-5.12z m-10.24 7.68c-2.56 0-5.12 2.56-7.68 5.12 2.56-2.56 5.12-5.12 7.68-5.12z m-10.24 2.56c-2.56 0-7.68 2.56-10.24 2.56 5.12 0 7.68 0 10.24-2.56z m23.04-15.36c2.56-2.56 5.12-5.12 5.12-7.68-2.56 5.12-2.56 7.68-5.12 7.68z" fill="#F8B616" p-id="3020"></path><path d="M675.84 678.4c0 35.84 28.16 64 64 64s64-28.16 64-64-28.16-64-64-64-64 28.16-64 64" fill="#289349" p-id="3021"></path><path d="M668.16 691.2c0 35.84 28.16 64 64 64s64-28.16 64-64-28.16-64-64-64-64 28.16-64 64" fill="#F8B616" p-id="3022"></path><path d="M94.72 678.4c0 35.84 28.16 64 64 64s64-28.16 64-64S194.56 614.4 158.72 614.4s-64 28.16-64 64" fill="#289349" p-id="3023"></path><path d="M102.4 691.2c0 35.84 28.16 64 64 64S230.4 727.04 230.4 691.2s-28.16-64-64-64S102.4 655.36 102.4 691.2m793.6 163.84c0 23.04 12.8 43.52 30.72 53.76 20.48 10.24 43.52 10.24 64 0s30.72-30.72 30.72-53.76c0-23.04-12.8-43.52-30.72-53.76-20.48-10.24-43.52-10.24-64 0-17.92 10.24-30.72 30.72-30.72 53.76" fill="#F8B616" p-id="3024"></path></svg>