<?xml version="1.0" standalone="no"?><!DOCTYPE svg PUBLIC "-//W3C//DTD SVG 1.1//EN" "http://www.w3.org/Graphics/SVG/1.1/DTD/svg11.dtd"><svg t="1639468491811" class="icon" viewBox="0 0 1129 1024" version="1.1" xmlns="http://www.w3.org/2000/svg" p-id="2883" xmlns:xlink="http://www.w3.org/1999/xlink" width="35.28125" height="32"><defs><style type="text/css"></style></defs><path d="M268.46298828 70.48671875a70.72382812 70.72382812 0 0 1 60.11542969 0 147.10605469 147.10605469 0 0 1 36.77607422 26.87519531l141.44853515 123.76757813h101.13574219l141.44765625-123.76757813a148.52021484 148.52021484 0 0 1 36.77607422-26.87519531A70.72382812 70.72382812 0 0 1 880.2265625 129.18798828a70.72382812 70.72382812 0 0 1-15.55927734 47.38535156 395.34785156 395.34785156 0 0 1-31.11855469 28.28935547 204.39228516 204.39228516 0 0 1-19.80263672 16.26679688h88.40478516a149.93525391 149.93525391 0 0 1 103.9649414 46.67783203 150.64189453 150.64189453 0 0 1 47.38535157 103.9640625v406.66376953a286.43291017 286.43291017 0 0 1-3.53671875 61.52958984 157.0078125 157.0078125 0 0 1-70.72382813 99.0140625 152.05693359 152.05693359 0 0 1-81.33310547 22.63183594H248.65947266a299.87050781 299.87050781 0 0 1-63.65126955-3.53671875A156.30029297 156.30029297 0 0 1 87.40917969 887.35009766a151.34941406 151.34941406 0 0 1-24.046875-81.33310547V403.59746094a316.84394531 316.84394531 0 0 1 0-58.70126953A155.59277344 155.59277344 0 0 1 204.81083984 219.0078125h92.64902345c-14.85263673-10.60839844-27.58271484-23.33935547-41.02031251-34.65527344a70.72382812 70.72382812 0 0 1-22.63183594-57.99375 70.72382812 70.72382812 0 0 1 34.65527344-55.87207031M252.1953125 344.89619141a70.72382812 70.72382812 0 0 0-55.87207031 50.9211914 95.47734375 95.47734375 0 0 0 0 26.87519531v334.52490235a70.72382812 70.72382812 0 0 0 48.79951172 70.72470703 93.35566406 93.35566406 0 0 0 30.41103515 4.95h574.9875a70.72382812 70.72382812 0 0 0 67.18710938-41.72695312 99.0140625 99.0140625 0 0 0 7.07255859-46.67783204v-311.18554687a118.81669922 118.81669922 0 0 0 0-33.94775391 70.72382812 70.72382812 0 0 0-45.9703125-48.09287109 113.86582031 113.86582031 0 0 0-43.84863281-6.36503906H285.43554687a236.21835938 236.21835938 0 0 0-33.24023437 0z m0 0" fill="#20B0E3" p-id="2884"></path><path d="M368.18369141 455.22617187a70.72382812 70.72382812 0 0 1 48.7995117 16.26591796 70.72382812 70.72382812 0 0 1 24.75351564 52.33623048v70.72382813a70.72382812 70.72382812 0 0 1-14.14511719 45.26367187 70.72382812 70.72382812 0 0 1-115.9875-8.48671875 91.94150391 91.94150391 0 0 1-9.19335937-48.09287109v-70.72382813a70.72382812 70.72382812 0 0 1 61.52958984-59.40791015z m365.64257812 0a70.72382812 70.72382812 0 0 1 75.67558594 66.48046876v70.72382812a82.74726562 82.74726562 0 0 1-10.60839844 46.67871094 70.72382812 70.72382812 0 0 1-116.69501953 0 84.16142578 84.16142578 0 0 1-11.31591797-50.21455078V518.16992188a70.72382812 70.72382812 0 0 1 61.52958984-62.23710938z m0 0" fill="#20B0E3" p-id="2885"></path></svg>