<?xml version="1.0" standalone="no"?><!DOCTYPE svg PUBLIC "-//W3C//DTD SVG 1.1//EN" "http://www.w3.org/Graphics/SVG/1.1/DTD/svg11.dtd"><svg t="1639468482548" class="icon" viewBox="0 0 1024 1024" version="1.1" xmlns="http://www.w3.org/2000/svg" p-id="2614" xmlns:xlink="http://www.w3.org/1999/xlink" width="32" height="32"><defs><style type="text/css"></style></defs><path d="M896 992H128C74.75 992 32 949.25 32 896V128C32 74.75 74.75 32 128 32h768c53.25 0 96 42.75 96 96v768c0 53.25-42.75 96-96 96z" fill="#37BF4C" p-id="2615"></path><path d="M194 182.75h636v71.25H194v-71.25zM774.5 609.5V329H249.5v279.75l525 0.75zM326 401H699.5v137.25H326V401z m335.25 369c23.25-35.25 44.25-75.75 64.5-121.5l-76.5-27.75c-20.25 54.75-42.75 104.25-69 150H446.75c-21.75-58.5-46.5-108-75-150l-70.5 27.75c28.5 43.5 52.5 84 70.5 121.5H176v70.5h672v-70.5H661.25z" fill="#FFFFFF" p-id="2616"></path></svg>