<?xml version="1.0" standalone="no"?><!DOCTYPE svg PUBLIC "-//W3C//DTD SVG 1.1//EN" "http://www.w3.org/Graphics/SVG/1.1/DTD/svg11.dtd"><svg class="icon" width="32px" height="30.34px" viewBox="0 0 1080 1024" version="1.1" xmlns="http://www.w3.org/2000/svg"><path d="M412.57793173 10.6713696c92.02561707-24.94152213 191.619696-26.48961707 282.61324907 3.69822614 9.03055146 2.1501312 17.80308694 5.07430933 26.3176064 8.6005248 14.70689813 4.64428373 29.9298272 8.6005248 42.8306144 17.37306026 115.93507626 50.65709227 210.19682987 149.56312853 258.01574827 266.70227841 46.95886613 109.22666667 53.3232544 235.48237227 17.4590656 348.92329706-43.94868266 147.326992-158.851696 271.08854613-302.05043627 326.905952-194.88789548 79.03882454-435.44457707 23.13541227-572.62294933-137.09236693-54.01129707-61.14973228-94.6917792-134.6842208-112.83888747-214.49709227-25.97358507-100.28212053-21.41530668-210.4548448 17.54507093-306.86672959 6.27838293-20.98528107 16.34099733-40.50847253 26.14559574-59.94565868C160.8405664 141.48535467 278.06572159 46.70756906 412.57793173 10.6713696m73.79250347 26.14559681c-123.33152747 15.996976-239.26660373 83.16707628-313.91915947 182.6751488-78.09276693 101.4001888-111.11878186 235.56837759-90.30551147 361.73807893 20.03922347 130.03993707 98.304 249.07120213 208.47672427 320.5415648 93.74572159 61.83777387 210.19682987 87.72535467 321.40161599 72.50242453 129.00787414-16.59901333 249.75924373-89.7034752 323.8957696-196.69400533 73.27647253-102.86227841 101.57219947-235.8263936 77.83475095-359.673952-24.94152213-137.86641493-115.84907093-261.28394773-238.83657814-327.76600534-87.29532801-47.99092907-189.98559573-66.39605227-288.54761173-53.32325439z" fill="#DE5833" /><path d="M410.5998112 88.07609494c120.83737493-40.50847253 259.0478112-25.02752747 367.50042987 42.05656641 107.76457707 65.019968 184.56726507 178.4608928 204.60648853 302.73847785 16.42700267 97.87397334-0.86005227 201.33828908-50.14106027 287.68755947-58.48356908 105.01240961-161.86187947 184.6532704-279.17303893 212.17494933-8.08449387-15.73896107-15.91097067-31.64993173-22.61938133-48.0769344-4.04224641-1.2040736-12.2127456-3.69822613-16.34099734-4.90229866l2.40814721-11.00867199c33.37003627 14.1048608 67.77213652 26.40361174 104.06635199 30.18784212 9.8045984-47.47489813 7.56846187-96.75590507-6.020368-143.37075093-32.251968 9.8045984-60.11766933 28.98376853-87.553344 47.81891945-13.33081388-2.1501312-26.57562241-4.21425708-39.9064352-5.50433599-21.0712864-56.16142827-41.8845568-115.5050496-32.59598933-176.48277226 83.08107093 37.67029972 183.79321812 64.67594773 269.11042453 17.7170816 10.3206304-7.6544672 35.00413654-18.83514987 22.18935467-34.31609386-17.54507093-6.53639892-36.1222048 1.2040736-53.66727573 3.7842304-50.57108692 11.86872427-104.58238293 22.36136533-155.6695008 7.65446719-17.88909227-4.64428373-40.33646187-22.36136533-29.15578027-43.00262507 5.84835733-21.32930133 30.6178688-14.53488747 46.7008512-14.44888105 54.61333333 7.99848853 104.92640427-18.83514987 155.06746453-35.86418988 28.55374294-12.64277121 62.61182187-20.89927573 82.2210176-46.95886613-1.72010454-20.98528107-31.8219424-21.67332267-48.33494933-23.6514432-49.539024 7.99848853-96.06786348 29.06977387-145.52088212 38.18633066 9.1165568-78.69480319-18.23311253-159.36772693-69.06221548-219.3133856-19.60919679-24.68350613-51.51714453-30.1018368-77.83475093-43.518656-57.19349121-56.16142827-144.66082987-79.03882454-222.23756374-59.85965333 14.96491306 5.762352 29.9298272 11.61070827 44.89474027 17.54507093-9.1165568 2.92417813-27.263664 8.77253547-36.29421547 11.6967136-4.04224641 6.62240427-8.08449387 13.33081388-12.12674026 19.95321814 43.26064001-1.80610987 87.12331732-0.86005227 129.00787413 11.61070827-39.47640961 9.46057707-84.11313387 17.37306027-111.37679787 50.65709227-42.91661973 45.32476693-44.63672427 112.9248928-35.34815786 171.06444052 29.9298272 157.3896064 66.56806293 313.5751392 96.1538688 470.9647456-108.79663999-38.61635733-201.51029972-120.49335467-251.04932267-225.0757376-54.269312-111.7208192-57.6235168-246.5770496-9.1165568-360.964032 48.16293973-115.59105492 148.10103893-208.3047136 267.2183104-247.17908586z" fill="#DE5833" /><path d="M486.3704352 36.81696639c98.56201599-13.07279787 201.25228373 5.33232533 288.54761173 53.32325441 122.98750613 66.4820576 213.89505494 189.89959039 238.83657814 327.76600534 23.73744854 123.84755947-4.55827841 256.81167467-77.83475093 359.673952-74.1365248 106.99053014-194.88789548 180.094992-323.8957696 196.69400533-111.2047872 15.22292907-227.65589548-10.66465068-321.40161601-72.50242453-110.17272427-71.47036267-188.4375008-190.50162773-208.47672425-320.5415648-20.8132704-126.16970026 12.2127456-260.33789013 90.30551145-361.73807895 74.6525568-99.5080736 190.58763308-166.6781728 313.91915947-182.6751488m-75.770624 51.25912855c-119.1172704 38.87437227-219.0553696 131.588032-267.2183104 247.17908586C94.87454081 449.6421632 98.2287456 584.4983936 152.4980576 696.2192128c49.539024 104.58238293 142.25268266 186.45938027 251.04932267 225.0757376-29.58580587-157.3896064-66.2240416-313.5751392-96.1538688-470.9647456-9.2885664-58.1395488-7.56846187-125.73967467 35.34815786-171.06444054 27.263664-33.284032 71.90038828-41.19651413 111.37679787-50.65709227-41.8845568-12.4707616-85.74723307-13.4168192-129.00787413-11.61070825 4.04224641-6.62240427 8.08449387-13.33081388 12.12674026-19.95321814 9.03055146-2.92417813 27.17765867-8.77253547 36.29421547-11.6967136-14.96491306-5.93436267-29.9298272-11.78271893-44.89474027-17.54507093 77.57673493-19.17917013 165.0440736 3.69822613 222.23756374 59.85965333 26.3176064 13.4168192 58.22555413 18.83514987 77.83475093 43.518656 50.82910187 59.94565867 78.17877119 140.6185824 69.06221546 219.3133856-22.7053856 5.59034133-46.01280853 8.25650347-69.32023146 9.63258774-40.1644512 0.86005227-79.81287147 22.53337493-102.77627307 55.301376-5.762352 25.54355947 9.97660907 50.39907626 29.15578027 65.9660256-9.2885664 60.97772161 11.52470293 120.321344 32.59598933 176.48277226-15.30893441 1.63410027-29.75781653 7.22444053-44.292704 12.04073494-33.11202133-14.19086613-65.79401601-33.54204693-102.86227734-33.62805227-1.29007893 49.539024-1.80610987 99.85209493 10.40663467 148.18704427 30.96189013-2.32214187 57.70952213-19.60919679 84.71517121-33.284032 26.23160106 3.95624107 53.3232544 3.6122208 78.1787712-7.05242988l0.86005226-4.38626772c4.12825173 1.2040736 12.29875093 3.69822613 16.34099734 4.90229866 6.70840959 16.42700267 14.53488747 32.33797332 22.61938133 48.0769344 117.31116053-27.52168 220.68946988-107.16254081 279.17303893-212.17494933 49.281008-86.3492704 66.56806293-189.81358507 50.14106027-287.68755947-20.03922347-124.27758507-96.8419104-237.71850879-204.60648853-302.73847787-108.45261973-67.08409493-246.66305492-82.56503893-367.50042987-42.05656639m178.8909184 248.12514346c21.58731732-9.8045984 44.9807456-8.42851413 67.85814187-5.24632-20.5552544-19.52319147-50.39907626-16.771024-67.85814187 5.24632m-229.97803626 34.4881056c14.53488747-28.72575361 45.49677653-36.81024641 75.42660373-36.1222048-30.01583253-13.93285013-75.5986144-3.69822613-75.42660375 36.1222048m254.23151681 57.70952214c19.09316587 23.39342827 56.84946986 15.82496639 59.25761707-16.9430336-8.08449387-0.6880416-24.25348054-2.1501312-32.33797441-2.9241792l31.90794774-5.84835627c-12.9007872-6.79441493-27.9517056-22.18935467-43.43265066-11.86872533-14.44888213 6.70840959-14.3628768 24.08146986-15.39493974 37.5842944m-197.5540576-24.85551681c-19.43718614 4.47227307-30.96189013 29.75781653-19.43718614 46.78685547 10.0626144 19.43718614 40.25045653 22.017344 53.06523841 3.87023574 18.6631392-22.53337493-4.8162944-60.28968-33.62805227-50.65709121z" fill="#FFFFFF" /><path d="M433.30519681 416.96016747c12.29875093-2.8381728 16.08298133 1.63410027 11.35269332 13.33081387-12.29875093 2.75216747-16.08298133-1.63410027-11.35269332-13.33081387z" fill="#FFFFFF" /><path d="M589.4907296 336.2012384c17.45906561-22.017344 47.30288747-24.76951147 67.85814187-5.24632-22.87739627-3.18219413-46.27082452-4.55827841-67.85814187 5.24632zM359.51269332 370.689344c-0.17201067-39.82043094 45.41077121-50.05505494 75.42660375-36.1222048-29.9298272-0.6880416-60.89171627 7.3964512-75.42660375 36.1222048zM613.74421013 428.39886614c1.03206293-13.50282454 0.9460576-30.87588479 15.39493974-37.5842944 15.48094508-10.3206304 30.53186348 5.07430933 43.43265066 11.86872533l-31.90794772 5.84835627c8.08449387 0.77404693 24.25348054 2.23613652 32.33797439 2.9241792-2.40814721 32.768-40.1644512 40.33646187-59.25761707 16.9430336zM416.19015253 403.54334935c28.81175893-9.63258773 52.29119147 28.12371627 33.62805227 50.65709119-12.81478188 18.1471072-43.00262507 15.5669504-53.06523839-3.87023574-11.52470293-17.02903893 0-42.3145824 19.43718612-46.78685547m17.11504428 13.41681814c-4.73028906 11.6967136-0.9460576 16.08298133 11.35269332 13.33081387 4.73028906-11.6967136 0.9460576-16.16898667-11.35269332-13.33081387z" fill="#2E4F8E" /><path d="M697.77133868 490.494656c49.45301867-9.1165568 95.98185813-30.18784212 145.52088212-38.18633066 16.513008 1.97812053 46.6148448 2.6661632 48.33494933 23.6514432-19.60919679 26.05959041-53.66727573 34.31609493-82.2210176 46.95886613-50.14106027 17.02903893-100.4541312 43.86267733-155.06746453 35.86418986-16.08298133-0.08600532-40.85249387-6.88042028-46.7008512 14.44888107-11.18068268 20.64125973 11.266688 38.35834133 29.15578027 43.00262507 51.08711787 14.70689813 105.09841493 4.21425708 155.6695008-7.65446721 17.54507093-2.58015788 36.1222048-10.3206304 53.66727573-3.7842304 12.81478188 15.48094508-11.86872427 26.66162773-22.18935467 34.31609388-85.31720748 46.95886613-186.02935467 19.95321812-269.11042453-17.7170816-19.17917013-15.5669504-34.9181312-40.4224672-29.15578027-65.9660256 22.9634016-32.768 62.61182187-54.44132267 102.77627307-55.301376 23.30742293-1.37608427 46.6148448-4.04224641 69.32023148-9.63258774z" fill="#FDD20A" /><path d="M627.33303893 803.38175361c27.43567467-18.83514987 55.30137493-38.01432 87.553344-47.81891947 13.58882987 46.6148448 15.82496639 95.89585279 6.020368 143.37075093-36.29421547-3.78423147-70.69631467-16.08298133-104.06635201-30.18784212l-2.40814719 11.00867199-0.86005226 4.38626772c-24.8555168 10.66465068-51.94717013 11.00867199-78.1787712 7.05242988-27.005648 13.67483413-53.75328107 30.96189013-84.71517121 33.284032-12.2127456-48.3349504-11.6967136-98.64802133-10.40663467-148.18704427 37.0682624 0.08600532 69.75025708 19.43718614 102.86227734 33.62805227 14.53488747-4.8162944 28.98376853-10.40663467 44.292704-12.04073494 13.33081388 1.29007893 26.57562241 3.3542048 39.9064352 5.50433601z" fill="#65BC46" /></svg>