<?xml version="1.0" standalone="no"?><!DOCTYPE svg PUBLIC "-//W3C//DTD SVG 1.1//EN" "http://www.w3.org/Graphics/SVG/1.1/DTD/svg11.dtd"><svg t="1639468670187" class="icon" viewBox="0 0 1024 1024" version="1.1" xmlns="http://www.w3.org/2000/svg" p-id="3786" xmlns:xlink="http://www.w3.org/1999/xlink" width="32" height="32"><defs><style type="text/css"></style></defs><path d="M512 512m-512 0a512 512 0 1 0 1024 0 512 512 0 1 0-1024 0Z" fill="#ffffff" p-id="3787"></path><path d="M389.79558756 899.32585127c4.14252206-6.2137837 8.28504534-12.42756741 8.28504413-14.49882905v-84.92171021c-128.41819614 26.92639645-155.34459259-53.85279169-155.34459259-53.85279291-20.71261275-53.85279169-51.78153127-68.35162075-51.78153005-68.35162074-41.42522429-28.99765689 4.14252206-28.99765689 4.14252206-28.99765688 45.56774756 4.14252206 70.42288238 47.63900799 70.42288238 47.63900799 41.42522429 70.42288238 107.70558461 49.71026963 134.63197984 39.35396386 4.14252206-28.99765689 16.57008947-49.71026963 28.99765689-62.13783703-103.56306132-12.42756741-211.26864592-51.78153127-211.26864593-227.8387354 0-49.71026963 18.64135111-91.13549392 47.6390092-124.27567407-4.14252206-12.42756741-20.71261275-57.99531498 4.14252206-122.20441366 0 0 39.35396386-12.42756741 126.34693572 47.63900921 37.28270222-10.35630577 76.63666608-14.49882905 115.99062873-14.49882905 39.35396386 0 78.70792651 6.2137837 115.99062873 14.49882905 89.06423349-60.06657539 126.34693571-47.63900799 126.34693572-47.63900921 24.85513482 64.20909868 10.35630577 109.77684502 4.14252206 122.20441366 28.99765689 33.14018016 47.63900799 72.49414281 47.6390092 124.27567407 0 176.05720534-107.70558461 215.41116799-211.26864593 227.8387354 16.57008947 14.49882905 31.06891852 41.42522429 31.06891853 84.92171021v126.34693571c0 4.14252206 2.07126164 8.28504534 8.28504413 14.49882905 6.2137837 8.28504534 4.14252206 22.78387317-4.14252207 28.99765688-4.14252206 2.07126164-8.28504534 4.14252206-12.4275674 4.14252207h-211.26864594c-12.42756741 0-20.71261275-8.28504534-20.71261274-20.71261154 0-6.2137837 2.07126164-10.35630577 4.14252327-12.42756741z" fill="#161614" p-id="3788"></path></svg>