<svg xmlns="http://www.w3.org/2000/svg" xmlns:xlink="http://www.w3.org/1999/xlink" width="32" height="29.065088757396452" viewBox="0 0 32 29.065088757396452" fill="none"><g opacity="1" transform="translate(0 0)  rotate(0 16 14.532544378698226)"><path id="路径 1" fill-rule="evenodd" style="fill:#000000" transform="translate(0 0)  rotate(0 6.358974358974359 14.532544378698226)" opacity="1" d="M8.99,0L0,29.07L3.69,29.07L12.72,0L8.99,0Z " /><path id="路径 2" fill-rule="evenodd" style="fill:#000000" transform="translate(12.717948717948717 0)  rotate(0 1.6410256410256419 14.532544378698226)" opacity="1" d="M0,0L0,29.07L3.28,29.07L3.28,0L0,0Z " /><path id="路径 3" fill-rule="evenodd" style="fill:#000000" transform="translate(28.717948717948715 0)  rotate(0 1.6410256410256419 14.532544378698226)" opacity="1" d="M0,0L0,29.07L3.28,29.07L3.28,0L0,0Z " /><path id="路径 4" fill-rule="evenodd" style="fill:#000000" transform="translate(16.031558185404343 0)  rotate(0 6.34319526627219 14.532544378698226)" opacity="1" d="M8.99,0L0,29.07L3.69,29.07L12.69,0L8.99,0Z " /></g></svg>