<svg xmlns="http://www.w3.org/2000/svg" xmlns:xlink="http://www.w3.org/1999/xlink" width="30" height="26.100254885301638" viewBox="0 0 30 26.100254885301638" fill="none"><defs><rect id="path_0" x="0" y="0" width="29.99999999999999" height="26.10025488530161" /></defs><g opacity="1" transform="translate(0 0)  rotate(0 14.999999999999995 13.050127442650805)"><mask id="bg-mask" fill="white"><use xlink:href="#path_0"></use></mask><g mask="url(#bg-mask)" ><path id="分组 1" fill-rule="evenodd" style="fill:#6001D2" transform="translate(4.21108913811464e-16 0)  rotate(0 15.000146482582831 13.050127442650805)" opacity="1" d="M17.8379 12.89L24.2479 12.89L29.9979 0L23.5779 0L17.8379 12.89Z M4.13 26.0979L9.79 26.0979L18.36 6.43788L12.74 6.43788L9.24 14.8479L5.78 6.43788L0 6.43788L0 6.43788L6.44 20.8879L4.13 26.0979Z M15.888 17.5267C15.888 19.2967 17.388 20.7867 19.378 20.7867C21.478 20.7867 23.038 19.2467 23.038 17.4267C23.038 15.5867 21.538 14.1367 19.528 14.1367L19.528 14.1367C17.438 14.1367 15.888 15.6967 15.888 17.5267Z " /></g></g></svg>