<?xml version="1.0" standalone="no"?><!DOCTYPE svg PUBLIC "-//W3C//DTD SVG 1.1//EN" "http://www.w3.org/Graphics/SVG/1.1/DTD/svg11.dtd"><svg t="1641372289747" class="icon" viewBox="0 0 1024 1024" version="1.1" xmlns="http://www.w3.org/2000/svg" p-id="2301" xmlns:xlink="http://www.w3.org/1999/xlink" width="32" height="32"><defs><style type="text/css"></style></defs><path d="M182.77135615 114.56989136c-18.15641316 10.16989026-51.53893356 42.97784103-65.96064268 64.8115019-7.23958273 11.03174466-8.79092256 19.47792453-5.05621539 27.57936325 2.29828 4.76893216 81.30166256 84.74908337 202.59340233 205.00659657 96.92996883 96.06811443 121.11936761 120.88954073 124.91152954 128.12912344l3.61979137 6.89484002 0.63202751 201.38680521 0.68948383 201.4442631 3.16013601 5.63078658c7.29703906 12.87036929 20.56960741 16.20287589 64.8115019 16.20287587 45.56340585 0 58.95088843-3.4474208 65.38607308-16.60507493 2.47065057-5.05621695 2.58556481-12.06597121 3.21759233-206.67285062l0.68948383-201.44426155 3.04522177-5.74570079c5.05621695-9.65277699-17.46692932 13.21511201 215.00411624-218.049338 106.69766005-106.18054677 108.76611157-108.30645621 112.44335929-115.6034953 6.83738369-13.44493891-1.43642559-28.72850246-32.92286345-60.78951149-34.81894597-35.33605926-50.5621649-42.69055467-65.90318633-30.56712711-5.28604385 4.25181887-166.68277346 164.03975231-252.52353975 250.05288917-42.28835563 42.40326986-45.39103529 44.47172295-57.39955014 37.80670982-4.36673312-2.41319424-69.23569135-66.2479275-208.39655948-205.06405448-97.33216788-97.1023394-93.94220497-94.57423092-112.04116181-84.46179857" fill="#EC1A22" p-id="2302"></path></svg>