<?xml version="1.0" standalone="no"?><!DOCTYPE svg PUBLIC "-//W3C//DTD SVG 1.1//EN" "http://www.w3.org/Graphics/SVG/1.1/DTD/svg11.dtd"><svg t="1639468488059" class="icon" viewBox="0 0 1024 1024" version="1.1" xmlns="http://www.w3.org/2000/svg" p-id="2749" xmlns:xlink="http://www.w3.org/1999/xlink" width="32" height="32"><defs><style type="text/css"></style></defs><path d="M999.36711111 834.98666667c0 89.48849778-72.55722667 162.04458667-162.04344889 162.04458666H189.12824889c-89.49191111 0-162.05027555-72.55836445-162.05027556-162.04458666v-648.192c0-89.49532445 72.55836445-162.05596445 162.05027556-162.05596445H837.3248c89.49532445 0 162.05596445 72.55836445 162.05596445 162.05482667l-0.01137778 648.19313778ZM402.34211555 547.67616h142.89692445c0-33.59630222-15.84128-53.27530667-15.84128-53.27530667H405.38453333c2.94684445-60.86314667 5.58648889-138.97955555 6.52970667-167.99288888h117.96138667s-0.63829333-49.91544889-13.75687112-49.9154489H308.76785778s12.48256-65.27886222 29.12028444-94.09422222c0 0-61.91445333-3.34279111-83.03502222 79.21436445-21.11943111 82.55715555-52.79744 132.47146667-56.15616 141.59189333-3.35985778 9.11701333 18.23971555 4.31786667 27.35672889 0 9.11928889-4.32014222 50.39672889-19.20113778 62.39573333-76.79544889h64.11377778c0.86471111 36.50218667 3.40195555 148.36280889 2.60209778 167.99175111H223.17511111c-18.71644445 13.43715555-24.95829333 53.27530667-24.95829333 53.27530667h150.86023111c-6.29191111 41.65973333-17.33859555 95.36056889-32.78734222 123.83004445-24.47701333 45.11857778-37.43744 86.39601778-125.75288889 157.43203555 0 0-14.40085333 10.55857778 30.23758222 6.71971555 44.63616-3.83658667 86.87616-15.35772445 116.15232-73.91345777 15.22119111-30.44238222 30.96234667-69.05969778 43.24238222-108.22656l-0.04551111 0.13653333 124.3136 143.12675556s16.31914667-38.39658667 4.32128-80.63431112l-92.15317333-103.19416888-31.19786667 23.07299555-0.03527111 0.11264c8.66417778-30.37866667 14.89578667-60.41031111 16.83342222-86.54051555 0.04778667-0.62919111 0.09557333-1.27317333 0.13767111-1.92170667ZM574.99420445 265.9328v495.33155555h52.07608888l21.33674667 59.62524445 90.25763555-59.62524445h113.75274667V265.9328H574.99420445ZM798.8224 707.98563555h-59.12803555l-73.74734223 48.71623112-17.42961777-48.71623112H630.11271111v-386.77617777h168.70968889v386.77617777Zm0 0" fill="#1b61de" p-id="2750"></path></svg>